<svg xmlns="http://www.w3.org/2000/svg" viewBox="0 0 85.23 216.2"><defs></defs><title>Asset 1</title><g id="Layer_2" data-name="Layer 2"><g id="Layer_1-2" data-name="Layer 1"><path class="cls-1" d="M84.73,157.11v33.27a25.31,25.31,0,0,1-50.61,1c0-.33,0-.66,0-1V82.09c-.65-.12-1.3-.26-2-.41A41.15,41.15,0,1,1,82.76,40.3c0,.45,0,.89,0,1.34a41,41,0,0,1-8.49,25,16.31,16.31,0,0,1-3.07.3A15.76,15.76,0,0,1,58.5,60.53a25.23,25.23,0,0,0,8.4-17.2c0-.56.06-1.12.06-1.69A25.32,25.32,0,1,0,41.64,67a25.2,25.2,0,0,0,10.49-2.27A15.82,15.82,0,0,0,65.81,74.94a40.83,40.83,0,0,1-16.46,7.11l-.16,0v75.86l6.22,6.22-4.93,4.93L55.41,174l-5.35,5.35a6.36,6.36,0,0,1,3.62,3.45A6.33,6.33,0,0,1,50,191.27a9.51,9.51,0,0,0,8.82,8.59l.63,0a9.5,9.5,0,0,0,9.17-7,6.22,6.22,0,0,0-3.75-1.23,6.33,6.33,0,0,0,6.33-6.33,7.22,7.22,0,0,0,0-.82A6.34,6.34,0,0,0,65.65,179l-.06-.06,5-5-5-5,2.46-2.45,1.59-1.6v-7.86Z"></path><path class="cls-1" d="M57.46,41.64a16.61,16.61,0,0,1-.11,1.87,15.15,15.15,0,0,1-1,3.87,12.82,12.82,0,0,1-.87,1.88h0a15.84,15.84,0,1,1,2-7.63Z"></path></g></g></svg>