
<svg xmlns="http://www.w3.org/2000/svg" style="display:none">
  <defs>
    <g id="_base" fill="none" stroke="currentColor" stroke-width="1.5" stroke-linecap="round" stroke-linejoin="round"></g>
  </defs>

  
  <symbol id="key" viewBox="0 0 24 24" fill="none" stroke="currentColor" stroke-width="1.5" stroke-linecap="round" stroke-linejoin="round">
    <circle cx="12" cy="6" r="3.25"></circle>
    <path d="M12 9.25V21"></path>
    <path d="M12 16h2.5"></path>
    <path d="M12 18.5h3.5"></path>
  </symbol>

  <symbol id="shield" viewBox="0 0 24 24" fill="none" stroke="currentColor" stroke-width="1.5" stroke-linecap="round" stroke-linejoin="round">
    <path d="M12 3 4.5 5.5v6c0 4.5 3 8.5 7.5 10 4.5-1.5 7.5-5.5 7.5-10v-6L12 3Z"></path>
  </symbol>

  <symbol id="lock" viewBox="0 0 24 24" fill="none" stroke="currentColor" stroke-width="1.5" stroke-linecap="round" stroke-linejoin="round">
    <rect x="4.5" y="10.5" width="15" height="9.5" rx="1.5"></rect>
    <path d="M7.5 10.5V7a4.5 4.5 0 0 1 9 0v3.5"></path>
  </symbol>

  
  <symbol id="code" viewBox="0 0 24 24" fill="none" stroke="currentColor" stroke-width="1.5" stroke-linecap="round" stroke-linejoin="round">
    <path d="m8 8-5 4 5 4"></path>
    <path d="m16 8 5 4-5 4"></path>
    <path d="m14 5-4 14"></path>
  </symbol>

  <symbol id="brain" viewBox="0 0 24 24" fill="none" stroke="currentColor" stroke-width="1.5" stroke-linecap="round" stroke-linejoin="round">
    <path d="M12 4.5a3 3 0 0 0-3 3v.3a3 3 0 0 0-3 2.7 3 3 0 0 0 1 2.25v.5a3 3 0 0 0 3 3h2v3"></path>
    <path d="M12 4.5a3 3 0 0 1 3 3v.3a3 3 0 0 1 3 2.7 3 3 0 0 1-1 2.25v.5a3 3 0 0 1-3 3h-2"></path>
    <path d="M9 11h1.5M13.5 11H15M9 8.5h1.5"></path>
  </symbol>

  <symbol id="cloud" viewBox="0 0 24 24" fill="none" stroke="currentColor" stroke-width="1.5" stroke-linecap="round" stroke-linejoin="round">
    <path d="M7 18h11a3.5 3.5 0 0 0 .5-7 5.5 5.5 0 0 0-10.7-1A4 4 0 0 0 7 18Z"></path>
  </symbol>

  <symbol id="chart" viewBox="0 0 24 24" fill="none" stroke="currentColor" stroke-width="1.5" stroke-linecap="round" stroke-linejoin="round">
    <path d="M4 4v16h16"></path>
    <path d="M7 16V11M11 16V7M15 16v-7M19 16v-3"></path>
  </symbol>

  <symbol id="database" viewBox="0 0 24 24" fill="none" stroke="currentColor" stroke-width="1.5" stroke-linecap="round" stroke-linejoin="round">
    <ellipse cx="12" cy="5.5" rx="7" ry="2.5"></ellipse>
    <path d="M5 5.5v6c0 1.4 3.1 2.5 7 2.5s7-1.1 7-2.5v-6"></path>
    <path d="M5 11.5v6c0 1.4 3.1 2.5 7 2.5s7-1.1 7-2.5v-6"></path>
  </symbol>

  <symbol id="cube" viewBox="0 0 24 24" fill="none" stroke="currentColor" stroke-width="1.5" stroke-linecap="round" stroke-linejoin="round">
    <path d="m12 3 8 4.5v9L12 21l-8-4.5v-9L12 3Z"></path>
    <path d="m12 12 8-4.5M12 12v9M12 12 4 7.5"></path>
  </symbol>

  <symbol id="grid" viewBox="0 0 24 24" fill="none" stroke="currentColor" stroke-width="1.5" stroke-linecap="round" stroke-linejoin="round">
    <rect x="4" y="4" width="7" height="7"></rect>
    <rect x="13" y="4" width="7" height="7"></rect>
    <rect x="4" y="13" width="7" height="7"></rect>
    <rect x="13" y="13" width="7" height="7"></rect>
  </symbol>

  
  <symbol id="arrow-right" viewBox="0 0 24 24" fill="none" stroke="currentColor" stroke-width="1.5" stroke-linecap="round" stroke-linejoin="round">
    <path d="M5 12h14"></path>
    <path d="m13 6 6 6-6 6"></path>
  </symbol>

  <symbol id="arrow-up-right" viewBox="0 0 24 24" fill="none" stroke="currentColor" stroke-width="1.5" stroke-linecap="round" stroke-linejoin="round">
    <path d="M7 17 17 7"></path>
    <path d="M8 7h9v9"></path>
  </symbol>

  <symbol id="check" viewBox="0 0 24 24" fill="none" stroke="currentColor" stroke-width="1.5" stroke-linecap="round" stroke-linejoin="round">
    <path d="m4.5 12.5 5 5L20 7"></path>
  </symbol>

  <symbol id="close" viewBox="0 0 24 24" fill="none" stroke="currentColor" stroke-width="1.5" stroke-linecap="round" stroke-linejoin="round">
    <path d="M6 6 18 18M18 6 6 18"></path>
  </symbol>

  <symbol id="plus" viewBox="0 0 24 24" fill="none" stroke="currentColor" stroke-width="1.5" stroke-linecap="round" stroke-linejoin="round">
    <path d="M12 5v14M5 12h14"></path>
  </symbol>

  <symbol id="menu" viewBox="0 0 24 24" fill="none" stroke="currentColor" stroke-width="1.5" stroke-linecap="round" stroke-linejoin="round">
    <path d="M4 7h16M4 12h16M4 17h16"></path>
  </symbol>

  <symbol id="search" viewBox="0 0 24 24" fill="none" stroke="currentColor" stroke-width="1.5" stroke-linecap="round" stroke-linejoin="round">
    <circle cx="11" cy="11" r="6.5"></circle>
    <path d="m20 20-4.5-4.5"></path>
  </symbol>

  <symbol id="globe" viewBox="0 0 24 24" fill="none" stroke="currentColor" stroke-width="1.5" stroke-linecap="round" stroke-linejoin="round">
    <circle cx="12" cy="12" r="8.5"></circle>
    <path d="M3.5 12h17"></path>
    <path d="M12 3.5c2.5 2.7 4 5.9 4 8.5s-1.5 5.8-4 8.5c-2.5-2.7-4-5.9-4-8.5s1.5-5.8 4-8.5Z"></path>
  </symbol>

  <symbol id="mail" viewBox="0 0 24 24" fill="none" stroke="currentColor" stroke-width="1.5" stroke-linecap="round" stroke-linejoin="round">
    <rect x="3.5" y="5.5" width="17" height="13" rx="1.5"></rect>
    <path d="m4 7 8 6.5L20 7"></path>
  </symbol>

  <symbol id="phone" viewBox="0 0 24 24" fill="none" stroke="currentColor" stroke-width="1.5" stroke-linecap="round" stroke-linejoin="round">
    <path d="M5 4.5h3l2 5-2.5 1.5a11 11 0 0 0 5.5 5.5l1.5-2.5 5 2v3a2 2 0 0 1-2 2A14 14 0 0 1 3 6.5a2 2 0 0 1 2-2Z"></path>
  </symbol>

  <symbol id="sparkle" viewBox="0 0 24 24" fill="none" stroke="currentColor" stroke-width="1.5" stroke-linecap="round" stroke-linejoin="round">
    <path d="M12 3v6M12 15v6M3 12h6M15 12h6"></path>
    <path d="m5.5 5.5 3 3M15.5 15.5l3 3M5.5 18.5l3-3M15.5 8.5l3-3"></path>
  </symbol>

  <symbol id="zap" viewBox="0 0 24 24" fill="none" stroke="currentColor" stroke-width="1.5" stroke-linecap="round" stroke-linejoin="round">
    <path d="M13 3 5 14h6l-1 7 8-11h-6l1-7Z"></path>
  </symbol>

  <symbol id="users" viewBox="0 0 24 24" fill="none" stroke="currentColor" stroke-width="1.5" stroke-linecap="round" stroke-linejoin="round">
    <circle cx="9" cy="8" r="3.5"></circle>
    <path d="M3 20a6 6 0 0 1 12 0"></path>
    <circle cx="17" cy="7" r="2.5"></circle>
    <path d="M16 13a5 5 0 0 1 5 5"></path>
  </symbol>

  <symbol id="settings" viewBox="0 0 24 24" fill="none" stroke="currentColor" stroke-width="1.5" stroke-linecap="round" stroke-linejoin="round">
    <circle cx="12" cy="12" r="2.5"></circle>
    <path d="M19.4 14.5a1.7 1.7 0 0 0 .3 1.9l.1.1a2 2 0 1 1-2.9 2.9l-.1-.1a1.7 1.7 0 0 0-1.9-.3 1.7 1.7 0 0 0-1 1.5V21a2 2 0 1 1-4 0v-.1A1.7 1.7 0 0 0 8.5 19.4a1.7 1.7 0 0 0-1.9.3l-.1.1a2 2 0 1 1-2.9-2.9l.1-.1a1.7 1.7 0 0 0 .3-1.9 1.7 1.7 0 0 0-1.5-1H2.5a2 2 0 1 1 0-4h.1A1.7 1.7 0 0 0 4.6 8.5a1.7 1.7 0 0 0-.3-1.9l-.1-.1a2 2 0 1 1 2.9-2.9l.1.1a1.7 1.7 0 0 0 1.9.3H9.5a1.7 1.7 0 0 0 1-1.5V2.5a2 2 0 1 1 4 0v.1a1.7 1.7 0 0 0 1 1.5 1.7 1.7 0 0 0 1.9-.3l.1-.1a2 2 0 1 1 2.9 2.9l-.1.1a1.7 1.7 0 0 0-.3 1.9V8.5a1.7 1.7 0 0 0 1.5 1h.1a2 2 0 1 1 0 4h-.1a1.7 1.7 0 0 0-1.5 1Z"></path>
  </symbol>

  <symbol id="chevron-down" viewBox="0 0 24 24" fill="none" stroke="currentColor" stroke-width="1.5" stroke-linecap="round" stroke-linejoin="round">
    <path d="m6 9 6 6 6-6"></path>
  </symbol>
</svg>